<?xml version="1.0" standalone="no"?>
<!DOCTYPE svg PUBLIC "-//W3C//DTD SVG 20010904//EN"
 "http://www.w3.org/TR/2001/REC-SVG-20010904/DTD/svg10.dtd">
<svg version="1.0" xmlns="http://www.w3.org/2000/svg"
 width="512.000000pt" height="512.000000pt" viewBox="0 0 512.000000 512.000000"
 preserveAspectRatio="xMidYMid meet">

<g transform="translate(0.000000,512.000000) scale(0.100000,-0.100000)"
fill="#000000" stroke="none">
<path d="M2765 4605 c-14 -13 -25 -28 -25 -32 -5 -76 -469 -3484 -473 -3473
-3 8 -139 598 -301 1310 -273 1197 -298 1297 -321 1318 -33 28 -77 28 -110 0
-23 -20 -51 -116 -251 -848 -123 -454 -228 -836 -232 -849 -7 -20 -42 63 -182
430 -107 279 -183 463 -197 477 -22 22 -24 22 -318 22 l-297 0 -29 -29 c-32
-33 -36 -58 -14 -100 23 -46 57 -51 310 -51 212 0 233 -2 240 -17 4 -10 96
-251 205 -535 109 -284 206 -530 214 -546 30 -59 121 -61 150 -3 7 14 109 380
227 813 118 433 216 788 220 788 3 0 142 -597 308 -1327 167 -731 309 -1350
316 -1378 15 -58 44 -85 92 -85 42 0 78 33 86 81 4 19 106 781 227 1694 121
913 224 1675 228 1693 5 26 35 -105 134 -595 110 -545 130 -630 149 -645 19
-16 46 -18 233 -18 221 1 231 2 254 47 19 35 14 63 -17 94 l-29 29 -156 0
c-86 0 -156 1 -156 3 0 23 -342 1702 -350 1716 -25 47 -96 55 -135 16z"/>
<path d="M3915 2845 c-36 -35 -37 -85 -2 -122 20 -23 24 -23 279 -23 l259 0
24 25 c34 33 34 84 -1 119 l-27 26 -254 0 -254 0 -24 -25z"/>
<path d="M4719 2857 c-44 -34 -50 -92 -14 -131 l24 -26 168 0 c175 1 188 3
211 47 19 35 14 63 -17 94 l-29 29 -164 0 c-112 -1 -168 -4 -179 -13z"/>
</g>
</svg>
